<svg width="48" height="49" viewBox="0 0 48 49" fill="none" xmlns="http://www.w3.org/2000/svg">
<g filter="url(#filter0_d_1156_735)">
<path fill-rule="evenodd" clip-rule="evenodd" d="M12.5527 4.09787C11.1221 5.09823 9.82837 6.28098 8.70532 7.6124C13.2946 7.18633 19.1252 7.88204 25.8944 11.2667C33.123 14.8809 38.9438 15.0031 42.9948 14.2217C42.6272 13.1088 42.1644 12.0392 41.6163 11.0224C36.979 11.5115 31.034 10.8641 24.1056 7.39998C19.706 5.20018 15.8278 4.29401 12.5527 4.09787ZM38.9074 7.16665C35.2453 3.075 29.9234 0.5 24 0.5C22.2605 0.5 20.5727 0.722107 18.9637 1.13948C21.1429 1.73409 23.4579 2.60399 25.8944 3.82227C30.967 6.35853 35.3464 7.17516 38.9074 7.16665ZM43.8609 18.1281C38.9669 19.0945 32.2088 18.896 24.1056 14.8444C16.53 11.0566 10.5004 11.1043 6.4339 12.008C6.224 12.0546 6.01904 12.1036 5.81903 12.1546C5.28662 13.3125 4.86163 14.5301 4.5567 15.7945C4.88239 15.7075 5.21893 15.6248 5.56616 15.5476C10.4996 14.4513 17.4701 14.4989 25.8944 18.7111C33.4701 22.4989 39.4996 22.4512 43.5662 21.5475C43.7055 21.5166 43.8428 21.4846 43.9778 21.4516C43.9926 21.1363 44 20.819 44 20.5C44 19.6975 43.9528 18.906 43.8609 18.1281ZM43.3248 25.6723C38.4783 26.5196 31.917 26.1944 24.1056 22.2888C16.53 18.501 10.5004 18.5487 6.4339 19.4524C5.53125 19.6529 4.71924 19.8972 4.00293 20.1551C4.00098 20.2698 4 20.3848 4 20.5C4 31.5457 12.9543 40.5 24 40.5C33.2571 40.5 41.0453 34.2109 43.3248 25.6723Z" fill="url(#paint0_linear_1156_735)"/>
</g>
<defs>
<filter id="filter0_d_1156_735" x="0" y="0.5" width="48" height="48" filterUnits="userSpaceOnUse" color-interpolation-filters="sRGB">
<feFlood flood-opacity="0" result="BackgroundImageFix"/>
<feColorMatrix in="SourceAlpha" type="matrix" values="0 0 0 0 0 0 0 0 0 0 0 0 0 0 0 0 0 0 127 0" result="hardAlpha"/>
<feOffset dy="4"/>
<feGaussianBlur stdDeviation="2"/>
<feComposite in2="hardAlpha" operator="out"/>
<feColorMatrix type="matrix" values="0 0 0 0 0 0 0 0 0 0 0 0 0 0 0 0 0 0 0.25 0"/>
<feBlend mode="normal" in2="BackgroundImageFix" result="effect1_dropShadow_1156_735"/>
<feBlend mode="normal" in="SourceGraphic" in2="effect1_dropShadow_1156_735" result="shape"/>
</filter>
<linearGradient id="paint0_linear_1156_735" x1="40" y1="43.7" x2="0.266786" y2="36.0931" gradientUnits="userSpaceOnUse">
<stop stop-color="#5D50C6"/>
<stop offset="1" stop-color="#F85E9F"/>
</linearGradient>
</defs>
</svg>
